<?xml version="1.0" encoding="UTF-8"?>
<svg width="39px" height="39px" viewBox="0 0 39 39" version="1.1" xmlns="http://www.w3.org/2000/svg" xmlns:xlink="http://www.w3.org/1999/xlink">
    <!-- Generator: Sketch 47.1 (45422) - http://www.bohemiancoding.com/sketch -->
    <title>Page 1</title>
    <desc>Created with Sketch.</desc>
    <defs></defs>
    <g id="Page-1" stroke="none" stroke-width="1" fill="none" fill-rule="evenodd" stroke-linecap="round">
        <g id="4个人中心" transform="translate(-41.000000, -996.000000)" stroke="#060001" stroke-width="3">
            <path d="M64.1642926,1032.51882 C69.0552926,1033.35082 73.6142926,1032.43282 76.3192926,1029.68282 C79.2762926,1026.72482 77.3632926,1025.07182 74.7532926,1022.46182 C71.5342926,1019.24382 69.9692926,1018.46082 67.6192926,1020.89582 C64.0532926,1024.46282 59.5282926,1023.07082 56.0492926,1019.67882 C52.6562926,1016.28582 51.2642926,1011.76182 54.8312926,1008.19482 C57.1802926,1005.84582 56.3962926,1004.19282 53.2652926,1001.06082 C50.6552926,998.451825 49.0022926,996.537825 46.1312926,999.495825 C40.7372926,1004.88882 42.3912926,1017.24282 50.4812926,1025.33282 C52.9502926,1027.80182 55.8242926,1029.67182 58.7772926,1030.92482" id="Page-1"></path>
        </g>
    </g>
</svg>