<?xml version="1.0" encoding="UTF-8"?>
<!-- Generator: Adobe Illustrator 21.1.0, SVG Export Plug-In . SVG Version: 6.00 Build 0)  -->
<svg version="1.1" id="图层_1" xmlns="http://www.w3.org/2000/svg" xmlns:xlink="http://www.w3.org/1999/xlink" x="0px" y="0px" viewBox="0 0 52 52" style="enable-background:new 0 0 52 52;" xml:space="preserve">
<style type="text/css">
	.st0{fill:#FFFFFF;}
	.st1{fill:#221100;}
</style>
<title>Slice</title>
<desc>Created with Sketch.</desc>
<g id="Page-2">
	<g id="Artboard" transform="translate(-171.000000, -73.000000)">
		<g id="我的" transform="translate(171.000000, 73.000000)">
			<circle id="Oval-2" class="st0" cx="26.5" cy="26.5" r="22.5"/>
			<path class="st1" d="M26.5,50.5c-4.8,0-9.7-1.5-13.9-4.4C2.7,39-0.4,25.7,5.4,15c5.8-10.7,18.7-15.3,30-10.8     c0.8,0.3,1.1,1.2,0.8,1.9c-0.3,0.8-1.2,1.1-2,0.8c-9.9-4-21.1,0.1-26.2,9.4c-5.1,9.3-2.4,21,6.3,27.2c8.7,6.2,20.6,4.9,27.7-3     c7.1-7.9,7.3-19.9,0.3-27.9c-0.5-0.6-0.5-1.6,0.1-2.1c0.6-0.5,1.6-0.5,2.1,0.1c8,9.2,7.8,22.9-0.3,31.9     C39.6,47.8,33.1,50.5,26.5,50.5z"/>
			<g>
				<path id="Combined-Shape_1_" class="st0" d="M11,42.4C13.9,36.2,20.1,32,27.2,32C34,32,40,35.9,43,41.7      c-4.1,4.5-9.9,7.3-16.3,7.3C20.6,49,15,46.5,11,42.4z"/>
				<path class="st1" d="M26.7,50.5c-6.3,0-12.3-2.5-16.7-7.1l-0.7-0.7l0.5-1c3.3-6.9,10-11.2,17.5-11.2c7.2,0,13.8,4,17.2,10.5      l0.5,0.9l-0.7,0.8C39.6,47.7,33.3,50.5,26.7,50.5z M12.8,42.1c3.8,3.5,8.7,5.4,13.8,5.4c5.5,0,10.6-2.1,14.5-6c-3-5-8.3-8-14-8      C21.2,33.5,15.8,36.8,12.8,42.1z"/>
			</g>
			<g>
				<circle id="shape-24_1_" class="st0" cx="27" cy="24" r="11"/>
				<path class="st1" d="M27,36.5c-6.9,0-12.5-5.6-12.5-12.5S20.1,11.5,27,11.5S39.5,17.1,39.5,24S33.9,36.5,27,36.5z M27,14.5      c-5.2,0-9.5,4.3-9.5,9.5s4.3,9.5,9.5,9.5s9.5-4.3,9.5-9.5S32.2,14.5,27,14.5z"/>
			</g>
		</g>
	</g>
</g>
<head xmlns=""/></svg>