<?xml version="1.0" encoding="UTF-8"?>
<svg width="36px" height="34px" viewBox="0 0 36 34" version="1.1" xmlns="http://www.w3.org/2000/svg" xmlns:xlink="http://www.w3.org/1999/xlink">
    <!-- Generator: Sketch 47.1 (45422) - http://www.bohemiancoding.com/sketch -->
    <title>icon</title>
    <desc>Created with Sketch.</desc>
    <defs></defs>
    <g id="Page-1" stroke="none" stroke-width="1" fill="none" fill-rule="evenodd">
        <g id="4个人中心" transform="translate(-42.000000, -565.000000)">
            <g id="我的优惠券-copy" transform="translate(0.000000, 528.000000)">
                <g id="icon" transform="translate(40.000000, 34.000000)">
                    <polygon id="bounds" points="0 40 40 40 40 0 0 0"></polygon>
                    <g id="Group-6" transform="translate(2.000000, 3.000000)" fill="#222222">
                        <path d="M14.9817,13.0005 C14.8547,13.0005 14.7267,13.0125 14.5977,13.0365 C13.8377,13.1755 13.1817,13.8265 13.0387,14.5835 C12.9107,15.2585 13.1077,15.9175 13.5817,16.3905 L18.0007,20.8105 L22.4187,16.3915 C22.8917,15.9175 23.0887,15.2585 22.9607,14.5835 C22.8177,13.8265 22.1627,13.1755 21.4037,13.0365 L21.4027,13.0365 C20.7567,12.9145 20.1207,13.1005 19.6557,13.5395 C18.7277,14.4165 17.2727,14.4155 16.3447,13.5405 C15.9717,13.1885 15.4897,13.0005 14.9817,13.0005 M18.0007,23.9995 C17.3497,23.9995 16.6997,23.7515 16.2047,23.2565 L11.4607,18.5125 C10.2917,17.3445 9.7787,15.6655 10.0907,14.0225 C10.4687,12.0335 12.0627,10.4515 14.0557,10.0855 C15.4747,9.8245 16.8847,10.1625 18.0007,11.0155 C19.1157,10.1615 20.5257,9.8245 21.9447,10.0855 C23.9377,10.4515 25.5307,12.0335 25.9087,14.0225 C26.2197,15.6645 25.7087,17.3435 24.5397,18.5125 L19.7957,23.2565 C19.3007,23.7515 18.6507,23.9995 18.0007,23.9995" id="Fill-2"></path>
                        <path d="M32.0002,33.9996 L30.5002,33.9996 C29.6722,33.9996 29.0002,33.3276 29.0002,32.4996 C29.0002,31.6716 29.6722,30.9996 30.5002,30.9996 L32.0002,30.9996 C32.5522,30.9996 33.0002,30.5516 33.0002,29.9996 L33.0002,22.2916 C30.6942,21.6376 29.0002,19.5126 29.0002,16.9996 C29.0002,15.5306 29.5722,14.1486 30.6112,13.1106 C31.2862,12.4366 32.1052,11.9576 33.0002,11.7056 L33.0002,3.9996 C33.0002,3.4476 32.5522,2.9996 32.0002,2.9996 L4.0002,2.9996 C3.4482,2.9996 3.0002,3.4476 3.0002,3.9996 L3.0002,11.7056 C3.8952,11.9576 4.7142,12.4356 5.3892,13.1106 C6.4282,14.1486 7.0002,15.5306 7.0002,16.9996 C7.0002,19.5126 5.3062,21.6376 3.0002,22.2916 L3.0002,29.9996 C3.0002,30.5516 3.4482,30.9996 4.0002,30.9996 L24.5002,30.9996 C25.3282,30.9996 26.0002,31.6716 26.0002,32.4996 C26.0002,33.3276 25.3282,33.9996 24.5002,33.9996 L4.0002,33.9996 C1.7942,33.9996 0.0002,32.2056 0.0002,29.9996 L0.0002,20.9996 C0.0002,20.1716 0.6722,19.4996 1.5002,19.4996 C2.8792,19.4996 4.0002,18.3786 4.0002,16.9996 C4.0002,16.3316 3.7402,15.7046 3.2682,15.2316 C2.7962,14.7606 2.1692,14.5006 1.5022,14.5006 L1.5012,14.5006 L1.5002,14.5006 C1.1032,14.5006 0.7212,14.3426 0.4392,14.0616 C0.1582,13.7796 0.0002,13.3976 0.0002,13.0006 L0.0002,3.9996 C0.0002,1.7936 1.7942,-0.0004 4.0002,-0.0004 L32.0002,-0.0004 C34.2062,-0.0004 36.0002,1.7936 36.0002,3.9996 L36.0002,13.0006 C36.0002,13.3976 35.8422,13.7796 35.5612,14.0616 C35.2792,14.3426 34.8972,14.5006 34.5002,14.5006 L34.4992,14.5006 L34.4982,14.5006 C33.8312,14.5006 33.2042,14.7606 32.7322,15.2316 C32.2602,15.7046 32.0002,16.3316 32.0002,16.9996 C32.0002,18.3786 33.1212,19.4996 34.5002,19.4996 C35.3282,19.4996 36.0002,20.1716 36.0002,20.9996 L36.0002,29.9996 C36.0002,32.2056 34.2062,33.9996 32.0002,33.9996" id="Fill-4"></path>
                    </g>
                </g>
            </g>
        </g>
    </g>
</svg>