<?xml version="1.0" encoding="UTF-8"?>
<svg width="34px" height="38px" viewBox="0 0 34 38" version="1.1" xmlns="http://www.w3.org/2000/svg" xmlns:xlink="http://www.w3.org/1999/xlink">
    <!-- Generator: Sketch 47.1 (45422) - http://www.bohemiancoding.com/sketch -->
    <title>Page 1</title>
    <desc>Created with Sketch.</desc>
    <defs>
        <polygon id="path-1" points="0 37.9997 0 0.1537 33.7695 0.1537 33.7695 37.9997"></polygon>
    </defs>
    <g id="Page-1" stroke="none" stroke-width="1" fill="none" fill-rule="evenodd">
        <g id="4个人中心" transform="translate(-43.000000, -673.000000)">
            <g id="Page-1" transform="translate(43.000000, 672.000000)">
                <g id="Group-3" transform="translate(0.000000, 0.846700)">
                    <mask id="mask-2" fill="white">
                        <use xlink:href="#path-1"></use>
                    </mask>
                    <g id="Clip-2"></g>
                    <path d="M32.2695,7.0767 C31.4415,7.0767 30.7695,7.7477 30.7695,8.5767 L30.7695,27.2697 C30.7695,31.5327 27.3015,34.9997 23.0395,34.9997 L6.1165,34.9997 C4.3975,34.9997 2.9995,33.6027 2.9995,31.8847 L2.9995,6.2687 C2.9995,4.5517 4.3975,3.1537 6.1165,3.1537 L29.1925,3.1537 C30.0205,3.1537 30.6925,2.4817 30.6925,1.6537 C30.6925,0.8247 30.0205,0.1537 29.1925,0.1537 L6.1165,0.1537 C2.7445,0.1537 -0.0005,2.8967 -0.0005,6.2687 L-0.0005,31.8847 C-0.0005,35.2567 2.7445,37.9997 6.1165,37.9997 L23.0395,37.9997 C28.9565,37.9997 33.7695,33.1867 33.7695,27.2697 L33.7695,8.5767 C33.7695,7.7477 33.0975,7.0767 32.2695,7.0767" id="Fill-1" fill="#222222" mask="url(#mask-2)"></path>
                </g>
                <path d="M25.3076,11.731 C25.3076,10.902 24.6356,10.231 23.8076,10.231 L9.1926,10.231 C8.3646,10.231 7.6926,10.902 7.6926,11.731 C7.6926,12.56 8.3646,13.231 9.1926,13.231 L23.8076,13.231 C24.6356,13.231 25.3076,12.56 25.3076,11.731" id="Fill-4" fill="#222222"></path>
                <path d="M9.1924,19.6929 C8.3644,19.6929 7.6924,20.3639 7.6924,21.1929 C7.6924,22.0219 8.3644,22.6929 9.1924,22.6929 L20.7314,22.6929 C21.5594,22.6929 22.2314,22.0219 22.2314,21.1929 C22.2314,20.3639 21.5594,19.6929 20.7314,19.6929 L9.1924,19.6929 Z" id="Fill-6" fill="#222222"></path>
            </g>
        </g>
    </g>
</svg>