<?xml version="1.0" encoding="UTF-8"?>
<svg width="38px" height="38px" viewBox="0 0 38 38" version="1.1" xmlns="http://www.w3.org/2000/svg" xmlns:xlink="http://www.w3.org/1999/xlink">
    <!-- Generator: Sketch 47.1 (45422) - http://www.bohemiancoding.com/sketch -->
    <title>icon</title>
    <desc>Created with Sketch.</desc>
    <defs></defs>
    <g id="Page-1" stroke="none" stroke-width="1" fill="none" fill-rule="evenodd">
        <g id="4个人中心" transform="translate(-41.000000, -779.000000)">
            <g id="我的积分-copy-4" transform="translate(0.000000, 744.000000)">
                <g id="icon" transform="translate(40.000000, 34.000000)">
                    <polygon id="bounds" points="0 40 40 40 40 0 0 0"></polygon>
                    <g id="Group-8" transform="translate(1.000000, 1.000000)" fill="#222222">
                        <path d="M23.8035,28.4315 L25.4215,30.8545 C25.5745,31.0845 25.6625,31.3525 25.6735,31.6285 L25.7885,34.5405 L28.5925,33.7495 C28.8605,33.6745 29.1395,33.6745 29.4075,33.7495 L32.2115,34.5405 L32.3255,31.6285 C32.3365,31.3525 32.4235,31.0845 32.5775,30.8545 L34.1965,28.4315 L31.4625,27.4225 C31.2035,27.3275 30.9755,27.1615 30.8045,26.9445 L28.9995,24.6565 L27.1965,26.9445 C27.0255,27.1615 26.7965,27.3275 26.5375,27.4225 L23.8035,28.4315 Z M24.3655,37.9995 C24.0515,37.9995 23.7425,37.9015 23.4835,37.7135 C23.1125,37.4435 22.8845,37.0175 22.8665,36.5585 L22.6925,32.1695 L20.2525,28.5155 C19.9965,28.1345 19.9315,27.6565 20.0735,27.2195 C20.2155,26.7825 20.5495,26.4345 20.9805,26.2755 L25.1025,24.7545 L27.8225,21.3055 C28.3905,20.5835 29.6095,20.5835 30.1775,21.3055 L32.8985,24.7545 L37.0195,26.2755 C37.4495,26.4345 37.7835,26.7825 37.9265,27.2195 C38.0685,27.6565 38.0025,28.1345 37.7465,28.5155 L35.3075,32.1695 L35.1345,36.5585 C35.1165,37.0175 34.8885,37.4435 34.5175,37.7135 C34.1465,37.9835 33.6745,38.0685 33.2285,37.9435 L28.9995,36.7525 L24.7725,37.9435 C24.6385,37.9815 24.5005,37.9995 24.3655,37.9995 L24.3655,37.9995 Z" id="Fill-2"></path>
                        <path d="M18.366,37.9681 C18.347,37.9681 18.33,37.9681 18.311,37.9671 C8.043,37.5971 0,29.2661 0,19.0001 C0,8.5231 8.523,0.0001 19,0.0001 C29.476,0.0001 38,8.5231 38,19.0001 C38,19.8981 37.92,20.8511 37.756,21.9131 C37.628,22.7311 36.868,23.2931 36.044,23.1661 C35.225,23.0391 34.664,22.2731 34.791,21.4541 C34.931,20.5461 35,19.7431 35,19.0001 C35,10.1771 27.822,3.0001 19,3.0001 C10.178,3.0001 3,10.1771 3,19.0001 C3,27.6431 9.772,34.6571 18.419,34.9691 C19.247,34.9991 19.894,35.6941 19.864,36.5221 C19.835,37.3311 19.17,37.9681 18.366,37.9681" id="Fill-4"></path>
                        <path d="M15.4988,27.1312 C15.2628,27.1312 15.0218,27.0752 14.7988,26.9572 C11.8388,25.3912 9.9998,22.3422 9.9998,19.0002 C9.9998,14.0372 14.0368,10.0002 18.9998,10.0002 C22.7078,10.0002 25.9888,12.2292 27.3598,15.6802 C27.6668,16.4502 27.2908,17.3222 26.5198,17.6282 C25.7518,17.9332 24.8788,17.5582 24.5728,16.7882 C23.6578,14.4862 21.4708,13.0002 18.9998,13.0002 C15.6908,13.0002 12.9998,15.6912 12.9998,19.0002 C12.9998,21.2272 14.2268,23.2602 16.2008,24.3042 C16.9338,24.6922 17.2128,25.6002 16.8258,26.3322 C16.5568,26.8402 16.0368,27.1312 15.4988,27.1312" id="Fill-6"></path>
                    </g>
                </g>
            </g>
        </g>
    </g>
</svg>