<?xml version="1.0" encoding="UTF-8"?>
<svg width="49px" height="49px" viewBox="0 0 49 49" version="1.1" xmlns="http://www.w3.org/2000/svg" xmlns:xlink="http://www.w3.org/1999/xlink">
    <!-- Generator: Sketch 47.1 (45422) - http://www.bohemiancoding.com/sketch -->
    <title>我的</title>
    <desc>Created with Sketch.</desc>
    <defs></defs>
    <g id="Page-1" stroke="none" stroke-width="1" fill="none" fill-rule="evenodd">
        <g id="我的" transform="translate(2.000000, 2.000000)">
            <circle id="Oval-2" fill="#FFCC22" cx="22.5" cy="22.5" r="22.5"></circle>
            <path d="M39.4753353,7.73474141 C46.9555908,16.3324851 46.8254268,29.1652136 39.1723121,37.6094712 C31.5191973,46.0537287 18.7605718,47.4421719 9.47009483,40.8417818 C0.179617842,34.2413917 -2.70806618,21.7370772 2.74753539,11.7316033 C8.20313697,1.72612935 20.2787272,-2.62000869 30.8596391,1.61374721" id="shape_拷贝_4" stroke="#221100" stroke-width="3" fill="#FFFFFF" stroke-linecap="round"></path>
            <g id="Group-15" transform="translate(14.000000, 10.000000)" fill="#221100">
                <rect id="Rectangle-13" x="0" y="9" width="18" height="3" rx="1.5"></rect>
                <rect id="Rectangle-13-Copy" x="0" y="16" width="18" height="3" rx="1.5"></rect>
                <rect id="Rectangle-14" x="8" y="9" width="3" height="17" rx="1.5"></rect>
                <path d="M9.3890873,9.77409366 C9.80904218,9.80504285 10.2395384,9.65995655 10.5606602,9.33883476 L10.5606602,9.33883476 L17.3388348,2.56066017 C17.9246212,1.97487373 17.9246212,1.02512627 17.3388348,0.439339828 L17.3388348,0.439339828 C16.7530483,-0.146446609 15.8033009,-0.146446609 15.2175144,0.439339828 L9.3890873,6.26776695 L3.56066017,0.439339828 C2.97487373,-0.146446609 2.02512627,-0.146446609 1.43933983,0.439339828 L1.43933983,0.439339828 C0.853553391,1.02512627 0.853553391,1.97487373 1.43933983,2.56066017 L1.43933983,2.56066017 L8.21751442,9.33883476 C8.5386362,9.65995655 8.96913241,9.80504285 9.3890873,9.77409366 Z" id="Combined-Shape"></path>
            </g>
        </g>
    </g>
</svg>