<?xml version="1.0" encoding="UTF-8"?>
<svg width="42px" height="42px" viewBox="0 0 42 42" version="1.1" xmlns="http://www.w3.org/2000/svg" xmlns:xlink="http://www.w3.org/1999/xlink">
    <!-- Generator: Sketch 47.1 (45422) - http://www.bohemiancoding.com/sketch -->
    <title>礼盒 copy</title>
    <desc>Created with Sketch.</desc>
    <defs>
        <path d="M0,4.75609756 C0,7.3825825 2.25439024,9.51219512 5.03586801,9.51219512 L10.071736,9.51219512 L10.071736,4.75609756 C10.071736,2.12905308 7.81678623,0 5.03586801,0 C2.25439024,0 0,2.12905308 0,4.75609756 Z" id="path-1"></path>
        <path d="M0,4.75609756 L0,9.51219512 L5.03586801,9.51219512 C7.81678623,9.51219512 10.071736,7.3825825 10.071736,4.75609756 C10.071736,2.12905308 7.81678623,0 5.03586801,0 C2.25439024,0 0,2.12905308 0,4.75609756 Z" id="path-3"></path>
    </defs>
    <g id="Page-1" stroke="none" stroke-width="1" fill="none" fill-rule="evenodd">
        <g id="4个人中心" transform="translate(-40.000000, -884.000000)">
            <g id="礼盒-copy" transform="translate(42.000000, 885.000000)">
                <g id="Group-5" transform="translate(0.000000, 9.512195)" stroke="#222222" stroke-width="3" stroke-linecap="round" stroke-linejoin="round">
                    <path d="M23.9393614,0.951219512 C18.4951609,0.951219512 14.2456463,0.951219512 3.35724534,0.951219512 C1.50308994,0.951219512 -2.27068548e-16,2.45430945 0,4.30846485 L0,7.66571019 C2.27068548e-16,9.51986559 1.50308994,11.0229555 3.35724534,11.0229555 L3.35724534,26.1305595 C3.35724534,27.9847149 4.86033527,29.4878049 6.71449067,29.4878049 L31.3342898,29.4878049 C33.1884452,29.4878049 34.6915352,27.9847149 34.6915352,26.1305595 L34.6915352,11.0229555 C36.5456906,11.0229555 38.0487805,9.51986559 38.0487805,7.66571019 L38.0487805,4.30846485 C38.0487805,2.45430945 36.5456906,0.951219512 34.6915352,0.951219512 C34.0505078,0.951219512 34.6915352,0.951219512 34.1319943,0.951219512" id="Combined-Shape"></path>
                </g>
                <g id="Group-8" transform="translate(8.952654, 0.000000)">
                    <mask id="mask-2" fill="white">
                        <use xlink:href="#path-1"></use>
                    </mask>
                    <g id="Clip-7"></g>
                    <polygon id="Fill-6" fill="#FFFFFF" mask="url(#mask-2)" points="-2.79770445 12.3098996 12.8694405 12.3098996 12.8694405 -2.79770445 -2.79770445 -2.79770445"></polygon>
                </g>
                <path d="M13.5968436,10.4634146 L18.6327116,10.4634146 L18.6327116,5.70731707 C18.6327116,3.08083214 16.3783214,0.951219512 13.5968436,0.951219512 C10.8153659,0.951219512 8.56097561,3.08083214 8.56097561,5.70731707 C8.56097561,8.33380201 10.8153659,10.4634146 13.5968436,10.4634146 Z" id="Stroke-9" stroke="#222222" stroke-width="3"></path>
                <g id="Group-13" transform="translate(19.024390, 0.000000)">
                    <mask id="mask-4" fill="white">
                        <use xlink:href="#path-3"></use>
                    </mask>
                    <g id="Clip-12"></g>
                    <polygon id="Fill-11" fill="#FFFFFF" mask="url(#mask-4)" points="-2.79770445 12.3098996 12.8694405 12.3098996 12.8694405 -2.79770445 -2.79770445 -2.79770445"></polygon>
                </g>
                <g id="Group-20" transform="translate(19.024390, 0.951220)" stroke="#222222" stroke-width="3">
                    <path d="M5.03586801,9.51219512 L0,9.51219512 L0,4.75609756 C0,2.12961263 2.25439024,3.28626015e-14 5.03586801,3.28626015e-14 C7.81734577,3.28626015e-14 10.071736,2.12961263 10.071736,4.75609756 C10.071736,7.3825825 7.81734577,9.51219512 5.03586801,9.51219512 Z" id="Stroke-14"></path>
                </g>
                <polygon id="Stroke-21" stroke="#222222" stroke-width="3" stroke-linecap="round" stroke-linejoin="round" points="16.5584489 20.7775213 12.3658537 22.4260102 14.8316799 26.285339 15.1194747 30.880847 19.5025902 29.7060685 23.8799497 30.880847 24.1683201 26.285339 26.6341463 22.4260102 22.4415511 20.7775213 19.4997122 17.1219512"></polygon>
            </g>
        </g>
    </g>
</svg>